Coordinates
version=1
nRows=6
nColumns=46
inDegrees=yes

Units are S.I. units (second, meters, Newtons, ...)
Angles are in degrees.

endheader
time	pelvis_tilt	pelvis_list	pelvis_rotation	pelvis_tx	pelvis_ty	pelvis_tz	bb_angle	bb_tx	bb_ty	bb_tz	hip_flexion_r	hip_adduction_r	hip_rotation_r	knee_angle_r	knee_angle_r_beta	ankle_angle_r	subtalar_angle_r	mtp_angle_r	crank_angle_r	hip_flexion_l	hip_adduction_l	hip_rotation_l	knee_angle_l	knee_angle_l_beta	ankle_angle_l	subtalar_angle_l	mtp_angle_l	crank_angle_l	lumbar_extension	lumbar_bending	lumbar_rotation	arm_flex_r	arm_add_r	arm_rot_r	elbow_flex_r	pro_sup_r	wrist_flex_r	wrist_dev_r	arm_flex_l	arm_add_l	arm_rot_l	elbow_flex_l	pro_sup_l	wrist_flex_l	wrist_dev_l
      5.00500000	    -34.76318043	      9.77184901	     12.24159453	      0.37886298	      1.15666780	     -0.25199752	      0.00000000	      0.50000000	      0.00000000	      0.25000000	     35.56651983	    -17.77904051	     -3.51578229	     37.18124926	      0.64893522	    -24.13872103	     -7.68070909	      0.00000000	      0.00000000	     82.22417607	      5.23962203	     -5.13529070	     94.76987780	      1.65404640	      6.48399185	     -2.98562309	      0.00000000	      0.00000000	    -58.82902450	     -4.64609699	     -6.93072403	     14.62723385	    -28.64267278	     -4.82565447	    111.10950734	     51.04710470	      0.00000000	      0.00000000	     41.67117878	    -30.36337274	     24.82646435	    104.31364120	     52.79392683	      0.00000000	      0.00000000
      5.01000000	    -34.55769932	      9.47195654	     12.04412976	      0.37916063	      1.15868845	     -0.25132194	      0.00000000	      0.50000000	      0.00000000	      0.25000000	     36.33839830	    -17.32934802	     -2.91205438	     39.62741955	      0.69162895	    -24.29618656	     -8.25204615	      0.00000000	      0.00000000	     80.75249960	      4.81201766	     -5.29432893	     92.37964162	      1.61232891	      7.66032918	     -3.12097400	      0.00000000	      0.00000000	    -59.04347201	     -4.70032997	     -6.73732518	     15.32226516	    -28.35732183	     -4.49505424	    110.52189972	     50.98175975	      0.00000000	      0.00000000	     41.78780976	    -30.27409045	     24.76140183	    104.19988602	     52.73068433	      0.00000000	      0.00000000
      5.01500000	    -34.39885192	      9.05510941	     11.95991005	      0.37958751	      1.16031660	     -0.25110953	      0.00000000	      0.50000000	      0.00000000	      0.25000000	     37.15032821	    -16.88490457	     -2.51284120	     42.14735355	      0.73561009	    -24.24552791	     -8.73048491	      0.00000000	      0.00000000	     79.31857442	      4.50634482	     -5.35545644	     89.90073936	      1.56906390	      8.70209584	     -3.07396808	      0.00000000	      0.00000000	    -59.14347789	     -4.54069343	     -6.41596889	     15.78751379	    -28.21119779	     -4.33681587	    110.14185703	     50.91743234	      0.00000000	      0.00000000	     41.74305664	    -30.07361663	     24.72922495	    104.15022838	     52.68138922	      0.00000000	      0.00000000
      5.02000000	    -34.18708606	      8.77646182	     11.90940442	      0.38009086	      1.16186284	     -0.25065760	      0.00000000	      0.50000000	      0.00000000	      0.25000000	     37.93166201	    -16.55988763	     -2.08626749	     44.69602420	      0.78009278	    -24.25548584	     -9.14894398	      0.00000000	      0.00000000	     77.73719397	      4.32120646	     -5.47058518	     87.25798076	      1.52293906	      9.58264619	     -2.83650150	      0.00000000	      0.00000000	    -59.29054390	     -4.48247163	     -6.21378600	     16.15871504	    -27.99581193	     -4.17703577	    109.72705797	     50.87232803	      0.00000000	      0.00000000	     41.76209908	    -29.93165512	     24.71699999	    104.03810698	     52.65851199	      0.00000000	      0.00000000
      5.02500000	    -34.02770863	      8.50200046	     11.68642180	      0.38047065	      1.16326578	     -0.25051264	      0.00000000	      0.50000000	      0.00000000	      0.25000000	     38.82312206	    -16.14103187	     -1.40888840	     47.18208930	      0.82348281	    -24.20198634	     -9.34471173	      0.00000000	      0.00000000	     76.17630019	      4.02308529	     -5.63702255	     84.52098264	      1.47516943	     10.13193399	     -2.66317641	      0.00000000	      0.00000000	    -59.32306541	     -4.51784177	     -5.96974167	     16.63864470	    -27.80793793	     -3.98077305	    109.08734187	     50.78565471	      0.00000000	      0.00000000	     41.74729639	    -29.73040635	     24.62862371	    103.80809057	     52.59248583	      0.00000000	      0.00000000
      5.03000000	    -33.73375101	      8.09153335	     11.49935245	      0.38085717	      1.16434705	     -0.25032672	      0.00000000	      0.50000000	      0.00000000	      0.25000000	     39.58202987	    -15.62033102	     -0.98819705	     49.72216188	      0.86781544	    -24.06354449	     -9.59026114	      0.00000000	      0.00000000	     74.55897628	      3.73235310	     -5.60117662	     81.84456785	      1.42845718	     10.32141575	     -2.66386292	      0.00000000	      0.00000000	    -59.36572485	     -4.39965476	     -5.59763120	     16.99532266	    -27.71107841	     -3.81867936	    108.63222680	     50.73309453	      0.00000000	      0.00000000	     41.63353062	    -29.59159783	     24.55598962	    103.63944139	     52.55646938	      0.00000000	      0.00000000
